<svg xmlns="http://www.w3.org/2000/svg" viewBox="0 0 2560 1707"><defs><style>.cls-1{fill:#d72b1f;}.cls-2{fill:#fff;}.cls-3{fill:#0039a6;}</style></defs><g id="Layer_2" data-name="Layer 2"><g id="Layer_1-2" data-name="Layer 1"><path class="cls-1" d="M2560,853.5V1557a150,150,0,0,1-150,150H150A150,150,0,0,1,0,1557V853.5c3.33,0,6.66-.09,10-.09q415.46,0,830.91,0c4.64,0,9.33.58,13.93-.6,4.66.13,9.32.38,14,.38l1678.22,0C2551.35,853.19,2555.68,853.39,2560,853.5Z"/><path class="cls-2" d="M2560,853.5c-4.32-.11-8.65-.31-13-.31l-1678.22,0c-4.65,0-9.31-.25-14-.38,0-4.66-.13-9.32-.13-14q0-412.95,0-825.91c0-4.3.69-8.66-.67-12.89H2410a150,150,0,0,1,150,150Z"/><path class="cls-3" d="M851,0a3.71,3.71,0,0,1,3.7,3.28c.36,3.19,0,6.42,0,9.61q.06,413,0,825.91c0,3.61,0,7.21.1,10.82a3.7,3.7,0,0,1-3.29,3.74c-3.52.35-7.08,0-10.61,0q-415.45,0-830.91,0-3.12,0-6.24.05A3.72,3.72,0,0,1,0,849.74V150A150,150,0,0,1,150,0ZM432.17,226.64l-7.95,0-.32.24c-13.47,41.4-26.82,82.85-40.44,124.2-3.22,9.79-.53,9.94-13.72,9.93q-65.5,0-131,.05c-.55,0-1.11,0-1.67-.06a3.72,3.72,0,0,0-2.39,6.72l4.18,3.05,104.32,75.74c7.52,5.46,7.53,5.5,4.6,14.52q-20.36,62.63-40.72,125.28c-.21.66-.46,1.32-.71,2a3.73,3.73,0,0,0,5.65,4.33l.86-.62q53.4-38.73,106.77-77.49c9.85-7.13,7.45-7,16.83-.21q53.43,38.68,106.78,77.48c.35.25.69.52,1,.79a3.72,3.72,0,0,0,5.79-4.29c-.41-1-.81-2-1.14-3q-19.67-60.93-39.57-121.77a16.6,16.6,0,0,1,6-18.57q53.08-38.56,106.15-77.14l.06-.05a3.74,3.74,0,0,0-2.34-6.77c-.59,0-1.18,0-1.76,0q-57-.08-114,0c-7,0-14-.27-21,.09-4.89.24-7.46-1.65-8.48-6.3-.5-2.27-1.38-4.45-2.1-6.66L432.49,226.87A.34.34,0,0,0,432.17,226.64Z"/><path class="cls-2" d="M429.18,216.71q21.38,65.68,42.73,131.37c.72,2.21,1.6,4.39,2.1,6.66,1,4.65,3.59,6.54,8.48,6.3,7-.36,14-.09,21-.09q57,0,114,0c3.25,0,6.61-.63,10.29.91-1.21,3.13-4,4.26-6.25,5.87q-54.13,39.42-108.34,78.73a12.91,12.91,0,0,0-4.68,14.41q20.24,62.16,40.41,124.34c1.19,3.68,3.49,7.21,2.79,11.55-3.68-.58-5.89-3.19-8.47-5.06Q489.81,553,436.46,514.25c-9.38-6.8-7-6.92-16.83.21Q366.22,553.17,312.86,592c-2.57,1.87-5.26,3.58-8.43,5.73-.32-4.76,1.53-8,2.63-11.42Q327.35,523.59,347.78,461c2.93-9,2.92-9.06-4.6-14.52L238.86,370.72c-3.47-2.52-6.93-5.07-11-8.07,3.91-2.63,7.55-1.64,10.89-1.64q65.51-.13,131-.05c13.19,0,10.5-.14,13.72-9.93,13.63-41.39,27-82.87,40.47-124.31l3.26-10Z"/></g></g></svg>